<svg width="24" height="25" viewBox="0 0 24 25" fill="none" xmlns="http://www.w3.org/2000/svg">
<path d="M19.9602 9.73187C19.2902 8.99187 18.2802 8.56187 16.8802 8.41187V7.65187C16.8802 6.28187 16.3002 4.96187 15.2802 4.04187C14.2502 3.10187 12.9102 2.66187 11.5202 2.79187C9.13023 3.02187 7.12023 5.33187 7.12023 7.83187V8.41187C5.72023 8.56187 4.71023 8.99187 4.04023 9.73187C3.07023 10.8119 3.10023 12.2519 3.21023 13.2519L3.91023 18.8219C4.12023 20.7719 4.91023 22.7719 9.21023 22.7719H14.7902C19.0902 22.7719 19.8802 20.7719 20.0902 18.8319L20.7902 13.2419C20.9002 12.2519 20.9202 10.8119 19.9602 9.73187ZM11.6602 4.18187C12.6602 4.09187 13.6102 4.40187 14.3502 5.07187C15.0802 5.73187 15.4902 6.67187 15.4902 7.65187V8.35187H8.51023V7.83187C8.51023 6.05187 9.98023 4.34187 11.6602 4.18187ZM8.42023 13.9219H8.41023C7.86023 13.9219 7.41023 13.4719 7.41023 12.9219C7.41023 12.3719 7.86023 11.9219 8.41023 11.9219C8.97023 11.9219 9.42023 12.3719 9.42023 12.9219C9.42023 13.4719 8.97023 13.9219 8.42023 13.9219ZM15.4202 13.9219H15.4102C14.8602 13.9219 14.4102 13.4719 14.4102 12.9219C14.4102 12.3719 14.8602 11.9219 15.4102 11.9219C15.9702 11.9219 16.4202 12.3719 16.4202 12.9219C16.4202 13.4719 15.9702 13.9219 15.4202 13.9219Z" fill="#525252"/>
</svg>
