<svg width="37" height="27" viewBox="0 0 37 27" fill="none" xmlns="http://www.w3.org/2000/svg">
<path d="M8.928 26.784C7.392 26.784 6.048 26.496 4.896 25.92C3.744 25.28 2.816 24.448 2.112 23.424C1.472 22.4 0.96 21.184 0.576 19.776C0.192 18.368 0 16.896 0 15.36C0 12.224 0.8 9.28 2.4 6.528C4.064 3.776 6.624 1.6 10.08 0L10.944 1.728C9.152 2.56001 7.552 3.776 6.144 5.37601C4.8 6.91201 4 8.54401 3.744 10.272C3.36 11.616 3.328 12.928 3.648 14.208C5.056 12.672 6.944 11.904 9.312 11.904C11.488 11.904 13.28 12.576 14.688 13.92C16.096 15.2 16.8 16.992 16.8 19.296C16.8 21.536 16.064 23.36 14.592 24.768C13.12 26.112 11.232 26.784 8.928 26.784ZM28.704 26.784C27.168 26.784 25.824 26.496 24.672 25.92C23.52 25.28 22.592 24.448 21.888 23.424C21.248 22.4 20.736 21.184 20.352 19.776C19.968 18.368 19.776 16.896 19.776 15.36C19.776 12.224 20.576 9.28 22.176 6.528C23.84 3.776 26.4 1.6 29.856 0L30.72 1.728C28.928 2.56001 27.328 3.776 25.92 5.37601C24.576 6.91201 23.776 8.54401 23.52 10.272C23.136 11.616 23.104 12.928 23.424 14.208C24.832 12.672 26.72 11.904 29.088 11.904C31.264 11.904 33.056 12.576 34.464 13.92C35.872 15.2 36.576 16.992 36.576 19.296C36.576 21.536 35.84 23.36 34.368 24.768C32.896 26.112 31.008 26.784 28.704 26.784Z" fill="#171717"/>
</svg>
