<svg width="24" height="24" viewBox="0 0 24 25" fill="none" xmlns="http://www.w3.org/2000/svg">
<path d="M13 8.77166C13.7956 8.77166 14.5587 9.08773 15.1213 9.65034C15.6839 10.2129 16 10.976 16 11.7717C16 12.0369 16.1054 12.2912 16.2929 12.4788C16.4804 12.6663 16.7348 12.7717 17 12.7717C17.2652 12.7717 17.5196 12.6663 17.7071 12.4788C17.8946 12.2912 18 12.0369 18 11.7717C18 10.4456 17.4732 9.17381 16.5355 8.23613C15.5979 7.29844 14.3261 6.77166 13 6.77166C12.7348 6.77166 12.4804 6.87702 12.2929 7.06455C12.1054 7.25209 12 7.50644 12 7.77166C12 8.03688 12.1054 8.29123 12.2929 8.47877C12.4804 8.6663 12.7348 8.77166 13 8.77166Z" fill="#000"/>
<path d="M13 4.77166C14.8565 4.77166 16.637 5.50916 17.9497 6.82191C19.2625 8.13467 20 9.91514 20 11.7717C20 12.0369 20.1054 12.2912 20.2929 12.4788C20.4804 12.6663 20.7348 12.7717 21 12.7717C21.2652 12.7717 21.5196 12.6663 21.7071 12.4788C21.8946 12.2912 22 12.0369 22 11.7717C22 9.38471 21.0518 7.09553 19.364 5.4077C17.6761 3.71987 15.3869 2.77166 13 2.77166C12.7348 2.77166 12.4804 2.87702 12.2929 3.06455C12.1054 3.25209 12 3.50644 12 3.77166C12 4.03688 12.1054 4.29123 12.2929 4.47877C12.4804 4.6663 12.7348 4.77166 13 4.77166ZM21.75 16.6817C21.695 16.5211 21.6 16.3772 21.4741 16.2635C21.3481 16.1498 21.1953 16.07 21.03 16.0317L15.03 14.6617C14.8671 14.6247 14.6976 14.6292 14.5369 14.6746C14.3762 14.72 14.2294 14.8049 14.11 14.9217C13.97 15.0517 13.96 15.0617 13.31 16.3017C11.1527 15.3086 9.42425 13.573 8.44 11.4117C9.71 10.7717 9.72 10.7717 9.85 10.6217C9.96671 10.5022 10.0516 10.3554 10.0971 10.1947C10.1425 10.034 10.1469 9.86452 10.11 9.70166L8.74 3.77166C8.70165 3.60636 8.62186 3.45353 8.50814 3.32757C8.39443 3.20161 8.25053 3.10666 8.09 3.05166C7.8561 2.96948 7.61506 2.90922 7.37 2.87166C7.11718 2.81343 6.8593 2.77994 6.6 2.77166C5.38 2.77166 4.20998 3.2563 3.34731 4.11897C2.48464 4.98164 2 6.15166 2 7.37166C2.00529 11.4544 3.62949 15.3683 6.5164 18.2553C9.40331 21.1422 13.3173 22.7664 17.4 22.7717C18.0041 22.7717 18.6022 22.6527 19.1603 22.4215C19.7184 22.1903 20.2255 21.8515 20.6527 21.4244C21.0798 20.9972 21.4187 20.4901 21.6498 19.932C21.881 19.3739 22 18.7757 22 18.1717C21.9994 17.9172 21.9793 17.6631 21.94 17.4117C21.8982 17.1632 21.8346 16.919 21.75 16.6817Z" fill="#000"/>
</svg>
