<svg width="299" height="293" viewBox="0 0 299 293" fill="none" xmlns="http://www.w3.org/2000/svg">
<path fill-rule="evenodd" clip-rule="evenodd" d="M149.5 53.4998L148.964 67.8607C147.379 110.324 113.073 144.378 70.3169 145.93L54.6202 146.5L70.3169 147.07C113.073 148.622 147.379 182.676 148.964 225.139L149.5 239.5L150.036 225.139C151.62 182.676 185.927 148.622 228.683 147.07L244.38 146.5L228.683 145.93C185.927 144.378 151.62 110.324 150.036 67.8607L149.5 53.4998ZM147.509 1.47428e-08L151.491 0L154.018 67.7142C155.525 108.106 188.158 140.499 228.829 141.975L299 144.523V148.477L228.829 151.025C188.158 152.501 155.525 184.894 154.018 225.286L151.491 293H147.509L144.982 225.286C143.475 184.894 110.842 152.501 70.1714 151.025L2.22664e-08 148.477L0 144.523L70.1713 141.975C110.842 140.499 143.475 108.106 144.982 67.7142L147.509 1.47428e-08Z" fill="#E2DBCB"/>
</svg>
