<svg width="24" height="24" viewBox="0 0 24 24" fill="none" xmlns="http://www.w3.org/2000/svg">
<path fill-rule="evenodd" clip-rule="evenodd" d="M11.739 2.77148C17.109 2.77148 21.477 7.13948 21.477 12.5095C21.477 15.043 20.5047 17.3538 18.9136 19.088L22.0444 22.2122C22.3374 22.5052 22.3384 22.9792 22.0454 23.2722C21.8994 23.4202 21.7064 23.4932 21.5144 23.4932C21.3234 23.4932 21.1314 23.4202 20.9844 23.2742L17.8159 20.1145C16.1491 21.4493 14.0357 22.2485 11.739 22.2485C6.369 22.2485 2 17.8795 2 12.5095C2 7.13948 6.369 2.77148 11.739 2.77148ZM11.739 4.27148C7.196 4.27148 3.5 7.96648 3.5 12.5095C3.5 17.0525 7.196 20.7485 11.739 20.7485C16.281 20.7485 19.977 17.0525 19.977 12.5095C19.977 7.96648 16.281 4.27148 11.739 4.27148Z" fill="#171717"/>
</svg>
