<svg width="301" height="295" viewBox="0 0 301 295" fill="none" xmlns="http://www.w3.org/2000/svg">
<path fill-rule="evenodd" clip-rule="evenodd" d="M150.5 53.865L149.96 68.324C148.365 111.077 113.829 145.364 70.7872 146.926L54.9855 147.5L70.7872 148.074C113.829 149.636 148.365 183.923 149.96 226.676L150.5 241.135L151.039 226.676C152.635 183.923 187.171 149.636 230.213 148.074L246.014 147.5L230.213 146.926C187.171 145.364 152.635 111.077 151.039 68.3239L150.5 53.865ZM148.496 1.48434e-08L152.504 0L155.048 68.1764C156.565 108.844 189.417 141.458 230.359 142.944L301 145.509V149.491L230.359 152.056C189.417 153.542 156.565 186.156 155.048 226.824L152.504 295H148.496L145.952 226.824C144.434 186.156 111.583 153.542 70.6407 152.056L2.24153e-08 149.491L0 145.509L70.6407 142.944C111.583 141.458 144.434 108.844 145.952 68.1764L148.496 1.48434e-08Z" fill="#E2DBCB"/>
</svg>
