<svg width="125" height="132" viewBox="0 0 125 132" fill="none" xmlns="http://www.w3.org/2000/svg">
<path fill-rule="evenodd" clip-rule="evenodd" d="M-31.6146 37.8795L-23.7629 47.9777C-0.546855 77.8363 -4.41792 120.654 -32.6373 146.136L-42.9972 155.491L-31.9853 146.913C-1.98991 123.547 40.849 127.17 66.2226 155.218L74.8039 164.704L66.9523 154.606C43.7362 124.747 47.6073 81.9301 75.8266 56.4479L86.1866 47.0928L75.1746 55.6709C45.1793 79.0366 2.34032 75.4137 -23.0333 47.3654L-31.6146 37.8795ZM-63.5794 2.53794L-60.8686 0.263268L-20.4063 44.9908C3.72957 71.6709 44.4788 75.117 73.011 52.8911L122.239 14.5433L124.502 17.24L78.1884 59.0614C51.3456 83.3006 47.6634 124.029 69.747 152.431L106.769 200.046L104.058 202.32L63.5956 157.593C39.4598 130.913 -1.28945 127.467 -29.8216 149.693L-79.0499 188.04L-81.3127 185.344L-34.9991 143.522C-8.15628 119.283 -4.47404 78.5545 -26.5576 50.1524L-63.5794 2.53794Z" fill="#E2DBCB"/>
</svg>
