<svg width="24" height="24" viewBox="0 0 24 24" fill="none" xmlns="http://www.w3.org/2000/svg">
<path d="M12 20.0039C14.9314 20.0041 17.6284 18.4018 19.0299 15.8271" stroke="#323232" stroke-width="1.5" stroke-linecap="round" stroke-linejoin="round"/>
<path d="M20.0033 12.0004C20.0033 7.58028 16.4201 3.99707 12 3.99707" stroke="#323232" stroke-width="1.5" stroke-linecap="round" stroke-linejoin="round"/>
<path d="M12 3.99707C9.06863 3.99683 6.37166 5.5992 4.97009 8.17381" stroke="#323232" stroke-width="1.5" stroke-linecap="round" stroke-linejoin="round"/>
<path d="M3.9967 12C3.9967 16.4201 7.57992 20.0033 12 20.0033" stroke="#323232" stroke-width="1.5" stroke-linecap="round" stroke-linejoin="round"/>
<path d="M4.97009 8.17383C6.71956 4.95881 10.4272 3.34031 13.9743 4.24319C17.5213 5.14607 20.0039 8.34024 20.0034 12.0004" stroke="#323232" stroke-width="1.5" stroke-linecap="round" stroke-linejoin="round"/>
<path d="M3.9967 12C3.99614 15.6602 6.47872 18.8544 10.0258 19.7572C13.5729 20.6601 17.2805 19.0416 19.03 15.8266" stroke="#323232" stroke-width="1.5" stroke-linecap="round" stroke-linejoin="round"/>
<path d="M8.04538 8.17322H4.50891V4.63574" stroke="#323232" stroke-width="1.5" stroke-linecap="round" stroke-linejoin="round"/>
<path d="M15.9546 15.8271H19.4911V19.3646" stroke="#323232" stroke-width="1.5" stroke-linecap="round" stroke-linejoin="round"/>
</svg>
