<svg width="24" height="24" viewBox="0 0 24 24" fill="none" xmlns="http://www.w3.org/2000/svg">
<path d="M16.0017 18.5031H8.16846" stroke="#171717" stroke-width="1.5" stroke-linecap="round" stroke-linejoin="round"/>
<path d="M18.9989 18.5033H21.0037C21.5562 18.5033 22.0041 18.0554 22.0041 17.5028V11.3857C22.0041 11.1313 21.9556 10.8792 21.8611 10.643L20.5058 7.25563C20.2019 6.49608 19.4662 5.99805 18.6481 5.99805H15.0012" stroke="#171717" stroke-width="1.5" stroke-linecap="round" stroke-linejoin="round"/>
<path d="M22.0041 13.0007H18.5026C18.2264 13.0007 18.0024 12.7767 18.0024 12.5005V8.99902H21.2038" stroke="#171717" stroke-width="1.5" stroke-linecap="round" stroke-linejoin="round"/>
<path d="M18.5594 17.4454C18.9886 17.8745 19.117 18.52 18.8848 19.0807C18.6525 19.6415 18.1054 20.0071 17.4984 20.0071C16.8915 20.0072 16.3443 19.6416 16.112 19.0809C15.8797 18.5201 16.008 17.8747 16.4372 17.4455L16.4373 17.4454C16.7187 17.164 17.1004 17.0059 17.4983 17.0059C17.8963 17.0059 18.278 17.164 18.5594 17.4454V17.4454" stroke="#171717" stroke-width="1.5" stroke-linecap="round" stroke-linejoin="round"/>
<path d="M7.55476 17.4455C7.98396 17.8746 8.11238 18.5201 7.88014 19.0808C7.6479 19.6416 7.10073 20.0072 6.49379 20.0072C5.88684 20.0073 5.33964 19.6417 5.10734 19.081C4.87505 18.5202 5.0034 17.8748 5.43255 17.4456L5.43285 17.4453C5.71424 17.1639 6.0959 17.0058 6.49384 17.0059C6.89178 17.0059 7.2734 17.164 7.55474 17.4455V17.4455" stroke="#171717" stroke-width="1.5" stroke-linecap="round" stroke-linejoin="round"/>
<path d="M4.9971 18.5031H2.99627C2.44375 18.5031 1.99585 18.0552 1.99585 17.5027V4.99749C1.99585 4.44497 2.44375 3.99707 2.99627 3.99707H14.0008C14.5534 3.99707 15.0013 4.44497 15.0013 4.99749V14.0012" stroke="#171717" stroke-width="1.5" stroke-linecap="round" stroke-linejoin="round"/>
<path d="M15.0013 14.0012H1.99585" stroke="#171717" stroke-width="1.5" stroke-linecap="round" stroke-linejoin="round"/>
</svg>
