<svg width="64" height="64" viewBox="0 0 64 64" fill="none" xmlns="http://www.w3.org/2000/svg">
<path d="M32 53.3421C39.817 53.3427 47.009 49.0697 50.7465 42.2041" stroke="#323232" stroke-width="2" stroke-linecap="round" stroke-linejoin="round"/>
<path d="M53.3422 32.0004C53.3422 20.2134 43.787 10.6582 32 10.6582" stroke="#323232" stroke-width="2" stroke-linecap="round" stroke-linejoin="round"/>
<path d="M31.9999 10.6582C24.1829 10.6576 16.9909 14.9305 13.2534 21.7962" stroke="#323232" stroke-width="2" stroke-linecap="round" stroke-linejoin="round"/>
<path d="M10.6577 32C10.6577 43.787 20.213 53.3422 31.9999 53.3422" stroke="#323232" stroke-width="2" stroke-linecap="round" stroke-linejoin="round"/>
<path d="M13.2534 21.7956C17.9187 13.2222 27.8056 8.90619 37.2645 11.3139C46.7234 13.7216 53.3436 22.2393 53.3421 31.9998" stroke="#323232" stroke-width="2" stroke-linecap="round" stroke-linejoin="round"/>
<path d="M10.6577 32C10.6562 41.7605 17.2764 50.2783 26.7353 52.686C36.1942 55.0936 46.0812 50.7776 50.7464 42.2042" stroke="#323232" stroke-width="2" stroke-linecap="round" stroke-linejoin="round"/>
<path d="M21.4545 21.7956H12.0239V12.3623" stroke="#323232" stroke-width="2" stroke-linecap="round" stroke-linejoin="round"/>
<path d="M42.5459 42.2041H51.9765V51.6374" stroke="#323232" stroke-width="2" stroke-linecap="round" stroke-linejoin="round"/>
</svg>
