<svg width="126" height="125" viewBox="0 0 126 125" fill="none" xmlns="http://www.w3.org/2000/svg">
<path fill-rule="evenodd" clip-rule="evenodd" d="M30.7112 23.8393L35.4981 29.9958C49.6522 48.1997 47.2922 74.304 30.0877 89.8397L23.7716 95.5432L30.4852 90.3134C48.7724 76.0681 74.89 78.2769 90.3595 95.377L95.5912 101.16L90.8043 95.0037C76.6502 76.7999 79.0103 50.6956 96.2147 35.1598L102.531 29.4563L95.8172 34.6861C77.53 48.9315 51.4124 46.7227 35.943 29.6225L30.7112 23.8393ZM11.2232 2.29265L12.8759 0.905858L37.5445 28.1748C52.2594 44.4408 77.1029 46.5418 94.4981 32.9914L124.511 9.61196L125.891 11.256L97.6546 36.7532C81.2894 51.5311 79.0445 76.362 92.5081 93.6779L115.079 122.707L113.426 124.094L88.7579 96.8248C74.043 80.5588 49.1995 78.4577 31.8043 92.0082L1.79137 115.388L0.411853 113.744L28.6478 88.2464C45.013 73.4685 47.2579 48.6376 33.7943 31.3217L11.2232 2.29265Z" fill="#E2DBCB"/>
</svg>
