<svg width="72" height="70" viewBox="0 0 72 70" fill="none" xmlns="http://www.w3.org/2000/svg">
<path fill-rule="evenodd" clip-rule="evenodd" d="M-23.4402 23.8393L-18.6533 29.9958C-4.49915 48.1997 -6.85922 74.304 -24.0637 89.8397L-30.3798 95.5432L-23.6662 90.3134C-5.37894 76.0681 20.7386 78.2769 36.2081 95.377L41.4398 101.16L36.6529 95.0037C22.4988 76.7999 24.8589 50.6956 42.0633 35.1598L48.3795 29.4563L41.6658 34.6861C23.3786 48.9315 -2.73893 46.7227 -18.2084 29.6225L-23.4402 23.8393ZM-42.9281 2.29265L-41.2754 0.905858L-16.6068 28.1748C-1.89195 44.4408 22.9516 46.5418 40.3467 32.9914L70.3597 9.61196L71.7392 11.256L43.5033 36.7532C27.1381 51.5311 24.8931 76.362 38.3568 93.6779L60.9278 122.707L59.2751 124.094L34.6065 96.8248C19.8916 80.5588 -4.95189 78.4577 -22.347 92.0082L-52.36 115.388L-53.7395 113.744L-25.5036 88.2464C-9.13837 73.4685 -6.89343 48.6376 -20.3571 31.3217L-42.9281 2.29265Z" fill="#E2DBCB"/>
</svg>
