<svg width="64" height="64" viewBox="0 0 64 64" fill="none" xmlns="http://www.w3.org/2000/svg">
<path d="M42.6714 49.3407H21.7827" stroke="#171717" stroke-width="2" stroke-linecap="round" stroke-linejoin="round"/>
<path d="M50.6639 49.3404H56.0101C57.4835 49.3404 58.6779 48.146 58.6779 46.6726V30.3601C58.6779 29.6817 58.5484 29.0095 58.2964 28.3797L54.6823 19.3467C53.8719 17.3213 51.9101 15.9932 49.7285 15.9932H40.0034" stroke="#171717" stroke-width="2" stroke-linecap="round" stroke-linejoin="round"/>
<path d="M58.6779 34.6682H49.3407C48.604 34.6682 48.0068 34.071 48.0068 33.3343V23.9971H56.5437" stroke="#171717" stroke-width="2" stroke-linecap="round" stroke-linejoin="round"/>
<path d="M49.4919 46.5216C50.6364 47.666 50.9789 49.3872 50.3596 50.8826C49.7403 52.3779 48.2812 53.3529 46.6626 53.353C45.0441 53.3531 43.5849 52.3782 42.9654 50.8829C42.346 49.3877 42.6883 47.6664 43.8327 46.5219L43.833 46.5216C44.5834 45.7712 45.6012 45.3496 46.6624 45.3496C47.7237 45.3496 48.7415 45.7712 49.4919 46.5216V46.5216" stroke="#171717" stroke-width="2" stroke-linecap="round" stroke-linejoin="round"/>
<path d="M20.1462 46.5219C21.2907 47.6663 21.6332 49.3875 21.0139 50.8828C20.3946 52.3782 18.9355 53.3532 17.3169 53.3533C15.6984 53.3534 14.2392 52.3785 13.6197 50.8832C13.0003 49.3879 13.3426 47.6667 14.487 46.5222L14.4878 46.5214C15.2381 45.771 16.2559 45.3495 17.3171 45.3496C18.3782 45.3497 19.3959 45.7714 20.1461 46.5219V46.5219" stroke="#171717" stroke-width="2" stroke-linecap="round" stroke-linejoin="round"/>
<path d="M13.3256 49.341H7.99004C6.51667 49.341 5.32227 48.1466 5.32227 46.6732V13.326C5.32227 11.8526 6.51667 10.6582 7.99004 10.6582H37.3356C38.809 10.6582 40.0034 11.8526 40.0034 13.326V37.336" stroke="#171717" stroke-width="2" stroke-linecap="round" stroke-linejoin="round"/>
<path d="M40.0034 37.3358H5.32227" stroke="#171717" stroke-width="2" stroke-linecap="round" stroke-linejoin="round"/>
</svg>
