<svg width="78" height="40" viewBox="0 0 78 40" fill="none" xmlns="http://www.w3.org/2000/svg">
<path fill-rule="evenodd" clip-rule="evenodd" d="M32.4251 21.2977C32.4251 23.1558 30.814 24.6615 28.8268 24.6615C26.8388 24.6615 25.2272 23.1554 25.2272 21.2977V4.27428C25.2272 2.4166 26.8388 0.910859 28.8268 0.910859C30.814 0.910859 32.4251 2.4166 32.4251 4.27428V21.2977ZM3.77543 7.71283C1.78784 7.71283 0.17627 6.20667 0.17627 4.34899C0.17627 2.4913 1.78784 0.98515 3.77543 0.98515H19.2831C21.2703 0.98515 22.8819 2.4913 22.8819 4.34899C22.8819 6.20667 21.2703 7.71283 19.2831 7.71283H3.77543ZM18.2497 16.4102C20.2369 16.4102 21.848 14.9041 21.848 13.046C21.848 11.1879 20.2369 9.68215 18.2497 9.68215H3.85512C1.86753 9.68215 0.256786 11.1879 0.256786 13.046V21.2977C0.256786 23.1558 1.86794 24.6615 3.85512 24.6615C5.84229 24.6615 7.45428 23.1554 7.45428 21.2977V16.3912L18.2497 16.4102ZM72.0881 24.6893C75.2561 24.6893 77.8239 22.251 77.8239 19.2906C77.8239 18.1799 77.4624 17.1486 76.844 16.2928L67.5526 2.14641C66.9114 1.22338 65.7983 0.613281 64.5333 0.613281C63.228 0.613281 62.0846 1.26281 61.4537 2.23523L51.4112 17.3582H42.1273V4.34899C42.1273 2.49089 40.5158 0.98515 38.5286 0.98515C36.5414 0.98515 34.9298 2.4913 34.9298 4.34899V21.2977C34.9298 23.1558 36.5414 24.6615 38.5286 24.6615H51.7698C53.4 24.6794 55.0299 23.824 56.2231 22.0771L64.5333 9.62613L70.0997 17.9143L62.3066 17.933C60.319 17.933 58.7075 19.4387 58.7075 21.2968C58.7075 23.1549 60.319 24.6607 62.3066 24.6607L72.0881 24.6893ZM5.83067 33.1634C5.96203 32.9185 6.1532 32.7108 6.3864 32.5596C6.61325 32.4097 6.87942 32.3304 7.1513 32.3317C8.10588 32.3317 8.61761 32.8742 8.68609 33.9595H5.62689C5.62689 33.6797 5.69496 33.4137 5.83067 33.1634ZM8.44496 35.8894C8.32419 36.0587 8.15776 36.2023 7.94443 36.3181C7.73194 36.4347 7.4908 36.4933 7.22269 36.4933C6.69933 36.4933 6.30215 36.3376 6.03196 36.0263C5.76178 35.7159 5.62648 35.2718 5.62648 34.6945H9.6415C9.6415 34.0462 9.55393 33.4809 9.37878 32.9987C9.20364 32.5164 8.93885 32.145 8.58483 31.8847C8.23122 31.6245 7.79544 31.4942 7.27747 31.4942C6.69311 31.4942 6.20337 31.627 5.80909 31.893C5.41356 32.1582 5.12097 32.5214 4.92964 32.9817C4.73789 33.4411 4.64243 33.9632 4.64243 34.5476C4.64243 35.0784 4.7408 35.552 4.93711 35.9678C5.13342 36.3837 5.41688 36.7087 5.78668 36.944C6.15689 37.1781 6.59392 37.2959 7.09777 37.2959C7.7199 37.2959 8.21752 37.1702 8.58981 36.9191C8.88177 36.7298 9.12164 36.4704 9.28748 36.1645C9.44975 35.8636 9.54272 35.6142 9.56638 35.4171H8.64086C8.63131 35.5619 8.56574 35.7192 8.44496 35.8894ZM17.6454 36.1205L19.1171 31.6531H20.1352C19.9741 32.1022 19.8243 32.5239 19.684 32.9177C19.5438 33.3108 19.3964 33.7225 19.2416 34.1508C18.8917 35.1163 18.5314 36.078 18.1609 37.0357C17.9148 37.6665 17.7263 38.1218 17.5956 38.4041C17.4649 38.6863 17.3337 38.8992 17.2021 39.0453C17.0702 39.1905 16.9208 39.2835 16.7531 39.325C16.5854 39.3674 16.3368 39.3881 16.0064 39.3881C15.9504 39.3881 15.8213 39.3599 15.6196 39.303V38.4559C15.7973 38.519 15.9828 38.551 16.1758 38.551C16.3401 38.551 16.465 38.5244 16.5505 38.4709C16.636 38.4173 16.7174 38.3086 16.7954 38.1476C16.873 37.9853 16.9921 37.6968 17.1528 37.2818L15.1141 31.6536H16.1654L17.6246 36.121H17.6454V36.1205ZM26.7973 33.1634C26.9334 32.9128 27.1181 32.7119 27.3526 32.5596C27.5871 32.4073 27.8419 32.3317 28.1179 32.3317C29.0725 32.3317 29.5842 32.8742 29.6527 33.9595H26.5935C26.5935 33.6797 26.6611 33.4137 26.7973 33.1634ZM29.4116 35.8894C29.2908 36.0587 29.1244 36.2023 28.911 36.3181C28.6981 36.4347 28.4574 36.4933 28.1893 36.4933C27.6655 36.4933 27.2688 36.3376 26.9986 36.0263C26.7284 35.7159 26.5931 35.2718 26.5931 34.6945H30.6081C30.6081 34.0462 30.5205 33.4809 30.345 32.9987C30.1698 32.5164 29.9055 32.145 29.5519 31.8847C29.1978 31.6245 28.762 31.4942 28.2445 31.4942C27.6597 31.4942 27.17 31.627 26.7753 31.893C26.3806 32.1582 26.0876 32.5214 25.8958 32.9817C25.7045 33.4411 25.6095 33.9632 25.6095 34.5476C25.6095 35.0784 25.7074 35.552 25.9041 35.9678C26.1004 36.3837 26.3839 36.7087 26.7541 36.944C27.1239 37.1781 27.5605 37.2959 28.0652 37.2959C28.6873 37.2959 29.185 37.1702 29.5572 36.9191C29.8492 36.7299 30.089 36.4705 30.2545 36.1645C30.4172 35.8636 30.5102 35.6142 30.5342 35.4171H29.6079C29.5975 35.5619 29.5319 35.7192 29.4116 35.8894ZM39.7185 32.887L38.6485 37.1378H37.6915L36.1031 31.6531H37.1142L38.1638 35.9616H38.1841L39.2466 31.6531H40.2755L41.3479 35.9616H41.3682L42.4851 31.6531H43.4085L41.8098 37.1378H40.8553L39.7421 32.887H39.7185ZM50.0926 33.1634C50.2236 32.9184 50.4147 32.7106 50.6479 32.5596C50.875 32.4097 51.1413 32.3305 51.4133 32.3317C52.3683 32.3317 52.8796 32.8742 52.9476 33.9595H49.8884C49.8884 33.6797 49.9565 33.4137 50.0926 33.1634ZM52.7069 35.8894C52.5862 36.0587 52.4201 36.2023 52.2068 36.3181C51.9935 36.4347 51.7528 36.4933 51.4847 36.4933C50.9609 36.4933 50.5645 36.3376 50.2939 36.0263C50.0242 35.7159 49.8884 35.2718 49.8884 34.6945H53.9043C53.9043 34.0462 53.8159 33.4809 53.6416 32.9987C53.4656 32.5164 53.2012 32.145 52.848 31.8847C52.4936 31.6245 52.0586 31.4942 51.5407 31.4942C50.9563 31.4942 50.4658 31.627 50.0711 31.893C49.6772 32.1582 49.3838 32.5214 49.1924 32.9817C49.0011 33.4411 48.9056 33.9632 48.9056 34.5476C48.9056 35.0784 49.0036 35.552 49.1999 35.9678C49.3962 36.3837 49.6797 36.7087 50.0503 36.944C50.4201 37.1781 50.8567 37.2959 51.361 37.2959C51.9835 37.2959 52.4803 37.1702 52.8534 36.9191C53.1453 36.7298 53.385 36.4704 53.5507 36.1645C53.713 35.8636 53.8059 35.6142 53.8304 35.4171H52.9041C52.8937 35.5619 52.8277 35.7192 52.7069 35.8894ZM63.047 35.8902C62.8856 36.0882 62.6743 36.2438 62.4108 36.3563C62.1524 36.4687 61.8737 36.5266 61.5919 36.5265C60.9287 36.5265 60.5975 36.2094 60.5975 35.5756C60.5975 35.3639 60.6589 35.1954 60.7814 35.0705C60.9038 34.9448 61.0474 34.8564 61.2118 34.8053C61.3761 34.7543 61.5629 34.7144 61.7704 34.6854C62.2958 34.6173 62.659 34.558 62.8624 34.5086C63.0649 34.4592 63.2068 34.4023 63.2886 34.3376V35.2399C63.2886 35.4752 63.2077 35.6927 63.047 35.8902ZM61.0831 32.5666C61.25 32.3641 61.5629 32.2637 62.0211 32.2637C62.8802 32.2637 63.3098 32.5612 63.3098 33.156C63.3098 33.559 63.1491 33.7744 62.8283 33.803L61.3101 33.9927C60.6432 34.0744 60.197 34.2886 59.9725 34.6356C59.748 34.9817 59.6359 35.3415 59.6359 35.7138C59.6359 36.0226 59.7089 36.2974 59.8546 36.5381C60.0003 36.7788 60.2049 36.9651 60.466 37.0975C60.727 37.2299 61.0246 37.2963 61.3574 37.2963C61.8339 37.2963 62.224 37.2121 62.5295 37.0444C62.8336 36.8768 63.1076 36.6595 63.3401 36.4015C63.3621 36.6642 63.4388 36.8693 63.5696 37.0174C63.7007 37.1656 63.9506 37.2395 64.3195 37.2395C64.4337 37.239 64.5471 37.2215 64.6561 37.1876C64.7005 37.1739 64.7574 37.1577 64.8255 37.1382V36.4663C64.6852 36.4928 64.5839 36.5069 64.5208 36.5069C64.3183 36.5069 64.2162 36.3982 64.2162 36.182V33.0261C64.2162 32.6061 64.0904 32.2819 63.8393 32.0532C63.5882 31.8246 63.3085 31.6747 62.9989 31.6025C62.6893 31.5311 62.417 31.4946 62.1809 31.4946C61.4716 31.4946 60.9212 31.6415 60.5303 31.935C60.1381 32.2275 59.9331 32.6903 59.9127 33.3228H60.7664C60.8108 33.0207 60.9163 32.7687 61.0831 32.5666ZM71.7694 33.9487V37.1378H70.843V31.6531H71.7162V32.5625H71.7391C72.1475 31.8507 72.6625 31.4942 73.2834 31.4942C73.3726 31.4942 73.4519 31.5054 73.5241 31.5274V32.4782H73.178C72.7605 32.4782 72.4218 32.621 72.1616 32.9061C71.8997 33.1917 71.7694 33.5386 71.7694 33.9487Z" fill="#171717"/>
</svg>
