<svg width="97" height="64" viewBox="0 0 97 64" fill="none" xmlns="http://www.w3.org/2000/svg">
<path d="M6.93839 63.9951C6.89716 63.9903 6.75741 63.9759 6.62783 63.9629C5.44499 63.8446 4.18233 63.3625 3.18977 62.6504C1.70162 61.5828 0.652944 60.0282 0.21553 58.2412C-0.0169169 57.2917 -0.063115 56.2279 0.0855456 55.2492C0.484151 52.6253 2.22411 50.3778 4.63778 49.3689C5.24015 49.1172 5.83797 48.958 6.54216 48.8618C6.93252 48.8085 7.88319 48.8082 8.277 48.8613C9.11214 48.9739 9.82 49.1838 10.5473 49.5345C11.3475 49.9203 11.9014 50.3176 12.5717 50.9868C13.1577 51.5718 13.5196 52.0587 13.9392 52.8267L14.0284 52.9901L13.7121 53.2233C13.2764 53.5445 12.2543 54.2712 11.9214 54.4965L11.6464 54.6826L11.5333 54.4376C11.3935 54.1348 11.2939 53.9552 11.1327 53.7153C10.4884 52.7565 9.46108 52.0717 8.34125 51.8545C7.74871 51.7396 7.01922 51.7524 6.43507 51.8879C5.82167 52.0303 5.15555 52.3495 4.64669 52.7451C4.44157 52.9045 4.06406 53.2776 3.89797 53.485C3.00174 54.6042 2.67163 56.03 2.979 57.4541C3.08542 57.9471 3.36088 58.5913 3.64824 59.0192C4.40878 60.1515 5.57455 60.877 6.895 61.0396C7.12843 61.0684 7.69073 61.0684 7.92416 61.0396C9.09355 60.8956 10.1741 60.2901 10.9124 59.3652C11.1298 59.0928 11.2813 58.857 11.4542 58.5221C11.5299 58.3754 11.5982 58.2553 11.6059 58.2553C11.6136 58.2553 12.152 58.6339 12.8023 59.0967L13.9847 59.9381L13.8648 60.1639C13.6162 60.6325 13.1885 61.2216 12.7901 61.644C12.1114 62.3637 11.4503 62.8528 10.5901 63.2716C9.84718 63.6332 9.05997 63.8639 8.22343 63.9651C8.03588 63.9878 7.07174 64.0103 6.93839 63.9951ZM17.0476 56.3344V48.9603H19.9175V54.2534H27.4138V48.9603H30.2837V63.7086H27.4138V57.2202H19.9175V63.7086H17.0476V56.3344ZM33.1833 62.4013C33.5032 61.6823 34.9791 58.364 36.4631 55.0272L39.1614 48.9603L41.1746 48.9605L43.1879 48.9607L46.4496 56.244C48.2435 60.2498 49.7297 63.568 49.7522 63.6179L49.7932 63.7086H46.3567L45.6932 62.2467L45.0298 60.7848L41.1896 60.79L37.3493 60.7952L36.6933 62.2519L36.0373 63.7086H32.6016L33.1833 62.4013ZM43.816 57.8094C43.8039 57.7574 41.1965 51.9495 41.1854 51.9497C41.1774 51.9498 38.7012 57.7088 38.6616 57.8192C38.6572 57.8315 39.6474 57.8392 41.2387 57.8392C43.4369 57.8392 43.8218 57.8347 43.816 57.8094ZM52.1084 56.3344V48.9603L54.127 48.9607L56.1457 48.9612L59.3048 53.3828L62.4639 57.8044L62.4693 53.3823L62.4747 48.9603H65.366V63.709L64.2059 63.7035L63.0457 63.698L59.0388 58.1548C56.835 55.106 55.0247 52.6113 55.0159 52.6108C55.007 52.6104 54.9998 55.1072 54.9998 58.1593V63.7086H52.1084V56.3344ZM70.5919 56.3344V48.9603H80.9367V51.927H73.4833V54.8724H80.3798V57.8392H73.4833V60.7846H82.0076V63.7086H70.5919V56.3344ZM86.0555 56.3344V48.9603H88.9469V60.7846H97V63.7086H86.0555V56.3344ZM36.5063 45.2094C33.4171 45.067 29.977 44.1322 27.2038 42.6816C25.0747 41.568 23.3873 40.3219 21.6195 38.5576C20.235 37.1757 19.2135 35.9029 18.3489 34.4819L17.9704 33.8599L18.5074 33.576C19.5537 33.023 24.3236 30.589 24.3611 30.589C24.382 30.589 24.579 30.8563 24.799 31.183C27.2848 34.8751 31.1736 37.2769 35.7244 37.9306C36.52 38.0449 38.9123 38.0267 39.7786 37.8998C40.7426 37.7585 41.8989 37.4965 42.6333 37.253C42.6811 37.2372 42.5898 37.0894 42.3797 36.8426C40.753 34.9318 39.2701 32.3091 38.4359 29.8675C36.9269 25.451 36.8194 20.7102 38.1275 16.2558C38.9398 13.4897 40.3377 10.8049 42.108 8.61079C42.3718 8.28392 42.5876 7.9955 42.5876 7.96991C42.5876 7.88285 41.2056 7.51627 40.2999 7.36307C38.9005 7.12639 36.7098 7.09704 35.4451 7.29804C33.3171 7.63625 31.1572 8.43046 29.4694 9.49533C27.5886 10.682 26.0201 12.207 24.7685 14.0661L24.2159 14.887L23.5124 14.5189C23.1255 14.3165 21.6883 13.5743 20.3185 12.8695C18.9488 12.1648 17.8238 11.5844 17.8186 11.5798C17.7969 11.5607 18.6544 10.2015 19.0074 9.69577C20.0791 8.16017 21.9821 6.12647 23.3881 5.01426C27.0646 2.10599 31.1519 0.468088 35.7534 0.0590392C36.607 -0.0168584 38.7235 -0.01752 39.5469 0.0578226C42.4683 0.325086 44.9725 1.03098 47.5597 2.31635L48.7961 2.93066L49.2103 2.69578C49.8792 2.31648 51.0676 1.76921 51.9701 1.42481C54.5025 0.458569 57.0528 -0.00136295 59.8706 3.03355e-06C61.8383 0.000963492 63.4799 0.193631 65.2619 0.632774C69.2879 1.62486 72.7212 3.52755 75.6793 6.40592C77.283 7.96639 78.5398 9.55966 79.5546 11.3187L79.7084 11.5853L77.2055 12.872C75.8289 13.5797 74.3888 14.3227 74.0054 14.5231L73.3082 14.8874L72.7812 14.0952C70.1811 10.1864 65.9278 7.64167 61.2723 7.2094C59.8941 7.08142 57.8476 7.19926 56.6035 7.47824C55.9633 7.62182 54.9239 7.91775 54.9242 7.95638C54.9244 7.97657 55.0944 8.20087 55.3021 8.45483C57.97 11.717 59.6358 15.6934 60.174 20.0847C60.3025 21.1328 60.3196 23.8087 60.2045 24.8463C59.7183 29.228 58.0558 33.2717 55.4019 36.527C54.8003 37.2649 54.826 37.2139 55.019 37.2882C55.1101 37.3232 55.5365 37.4408 55.9665 37.5494C58.1521 38.1012 60.5048 38.1792 62.7138 37.773C66.7316 37.0341 70.3502 34.6662 72.6776 31.2528C72.894 30.9353 73.0895 30.6543 73.1119 30.6283C73.1344 30.6022 73.6709 30.8398 74.3041 31.1561C75.5586 31.7828 79.488 33.8091 79.5302 33.8511C79.6004 33.9211 78.3481 35.7735 77.58 36.7358C76.853 37.6468 74.9471 39.5438 74.0366 40.2629C70.746 42.8616 67.0532 44.4505 62.9858 45.0178C58.3156 45.6691 53.3696 44.7968 49.3454 42.612L48.7767 42.3032L48.0713 42.6752C44.5761 44.518 40.567 45.3965 36.5063 45.2094ZM49.554 32.4071C51.5017 30.0045 52.717 27.09 53.0165 24.1034C53.117 23.101 53.0573 21.0591 52.9008 20.1463C52.47 17.6347 51.5482 15.482 50.0613 13.5148C49.7812 13.1444 49.3735 12.6491 49.1551 12.4144L48.7581 11.9874L48.3898 12.3855C47.9042 12.9102 47.095 13.9806 46.6871 14.6378C44.6162 17.9749 43.9401 22.0746 44.8171 25.9766C45.369 28.432 46.6378 30.9056 48.3477 32.8594L48.7415 33.3093L48.9138 33.1468C49.0086 33.0574 49.2966 32.7245 49.554 32.4071Z" fill="#171717"/>
</svg>
