<svg width="78" height="80" viewBox="0 0 78 80" fill="none" xmlns="http://www.w3.org/2000/svg">
<path d="M15.5749 11.2004V14.8154C14.2625 15.971 11.1266 16.6584 8.79183 16.6584C6.46006 16.6584 0.00585938 15.2124 0.00585938 8.41809C0.00585938 1.62376 6.14916 0.160006 8.62741 0.160006C11.1086 0.160006 13.7513 0.610393 15.2819 1.62376V4.80314C15.2819 5.20019 14.7348 5.16464 14.7348 4.80314C14.699 4.2609 13.2401 1.01041 9.593 1.08152C5.6559 1.16152 2.9953 4.2283 2.9953 8.2729C2.9953 12.3175 5.58117 15.7902 9.48538 15.6806C10.7529 15.645 12.0742 15.248 12.714 14.7205L12.7289 11.2004C12.7289 10.19 12.1101 9.82851 11.4913 9.82851C11.0877 9.82851 11.0877 9.25071 11.4913 9.25071H16.8125C17.2131 9.25071 17.2131 9.86407 16.8125 9.82851C16.1967 9.82851 15.5749 10.19 15.5749 11.2004ZM51.4512 4.8061C51.4512 5.20316 51.0506 5.1676 51.0506 4.8061C51.0117 4.26386 49.5558 0.903737 45.9087 0.977814C41.9716 1.05485 39.308 4.23127 39.308 8.27586C39.308 12.3205 41.861 15.8998 45.7622 15.7932C49.6635 15.6835 51.5229 11.8553 51.6694 11.3486C51.8159 10.8419 52.07 10.916 52.07 11.313V14.2761C50.4676 15.4317 47.4393 16.6614 45.1076 16.6614C42.7758 16.6614 36.3216 15.2154 36.3216 8.42105C36.3216 1.62376 42.447 0 44.9252 0C47.4064 0 49.9206 0.613356 51.4541 1.62376L51.4512 4.8061ZM77.5579 0.397052C78.1409 0.397052 78.1409 0.939294 77.5579 0.939294C76.9361 0.939294 76.3173 1.30079 76.3173 2.3112V14.3442C76.3173 15.3546 76.9361 15.7161 77.5579 15.7161C78.1409 15.7161 78.1409 16.4391 77.5579 16.4391H72.1979C71.6149 16.4391 71.6149 15.7161 72.1979 15.7161C72.8197 15.7161 73.4385 15.3546 73.4385 14.3442V2.3112C73.4385 1.29783 72.8197 0.939294 72.1979 0.939294C71.6149 0.939294 71.6149 0.397052 72.1979 0.397052H77.5579ZM34.9345 0.397052C35.5174 0.397052 35.5174 0.939294 34.9345 0.939294C34.3157 0.939294 33.6969 1.30079 33.6969 2.3112L33.6251 10.2078C33.6251 13.9887 30.531 16.768 26.7135 16.768C22.896 16.768 19.9155 13.9887 19.9155 10.2078V2.3112C19.9155 1.29783 19.2937 0.939294 18.6749 0.939294C18.092 0.939294 18.092 0.397052 18.6749 0.397052H24.0709C24.6538 0.397052 24.6538 0.939294 24.0709 0.939294C23.4491 0.939294 22.8302 1.30079 22.8302 2.3112L22.8243 11.1293C22.8243 13.7961 25.0245 15.9591 27.715 15.9591C30.4055 15.9591 32.5878 13.2538 32.5878 10.59L32.4562 2.3112C32.4562 1.29783 31.8374 0.939294 31.2156 0.939294C30.6357 0.939294 30.6357 0.397052 31.2156 0.397052H34.9345ZM39.9239 35.7998C43.1681 34.2117 46.7387 33.3883 50.357 33.3938C53.8994 33.3945 57.3959 34.1885 60.5852 35.7166C63.7746 37.2447 66.5743 39.4674 68.7753 42.2186C70.9763 44.9698 72.5217 48.1783 73.296 51.6046C74.0703 55.0309 74.0535 58.5863 73.2468 62.0052C72.4401 65.4241 70.8645 68.6182 68.6376 71.3488C66.4106 74.0794 63.59 76.2759 60.3863 77.7743C57.1827 79.2727 53.6788 80.0342 50.1366 80.002C46.5943 79.9697 43.1052 79.1445 39.9298 77.5881C36.755 79.1421 33.267 79.9653 29.7263 79.9961C26.1855 80.0269 22.6835 79.2646 19.4817 77.766C16.2798 76.2673 13.4609 74.0712 11.2353 71.3415C9.00966 68.6118 7.43493 65.419 6.62861 62.0015C5.8223 58.5841 5.80525 55.0303 6.57873 51.6054C7.35221 48.1805 8.89624 44.973 11.0955 42.2224C13.2948 39.4718 16.0926 37.2492 19.2799 35.7205C22.4672 34.1918 25.9618 33.3964 29.5027 33.3938C33.2514 33.3938 36.779 34.259 39.9239 35.7998ZM44.6651 38.8607C48.3071 41.8776 50.929 45.9282 52.1776 50.467H47.3048C45.9364 46.6347 43.3453 43.3487 39.9239 41.1067C36.509 43.3502 33.9226 46.6334 32.5549 50.4611L27.6851 50.4641C28.9493 45.9197 31.579 41.8644 35.2245 38.837C33.3706 38.2686 31.4403 37.9828 29.4997 37.9896C26.7815 37.9922 24.096 38.5768 21.627 39.7035C19.1579 40.8302 16.9636 42.4723 15.1942 44.5175C13.4248 46.5626 12.122 48.9625 11.3751 51.553C10.6281 54.1435 10.4547 56.8633 10.8665 59.5263C11.2784 62.1894 12.2658 64.7328 13.7613 66.9826C15.2568 69.2323 17.2251 71.1353 19.5313 72.5612C21.8375 73.9871 24.4274 74.9023 27.1235 75.2442C29.8197 75.5861 32.5586 75.3465 35.1527 74.542C32.7788 72.5543 30.8281 70.1177 29.4145 67.3746C28.001 64.6314 27.1529 61.6367 26.9198 58.5651H38.1063V63.2142L32.6655 63.2112C34.062 66.922 36.6082 70.0991 39.9388 72.2871C43.2695 70.1029 45.8119 66.924 47.1972 63.2112L41.7564 63.2142V58.5651H52.9429C52.696 61.6376 51.8339 64.6306 50.407 67.3692C48.9801 70.1078 47.017 72.5372 44.6322 74.5154C47.4592 75.4071 50.4585 75.6256 53.3866 75.1531C56.3147 74.6806 59.0892 73.5304 61.4848 71.7959C63.8804 70.0614 65.8297 67.7915 67.1743 65.1704C68.519 62.5492 69.2212 59.6508 69.2239 56.7103C69.2266 53.7698 68.5298 50.8701 67.1899 48.2465C65.8501 45.623 63.9051 43.3495 61.5127 41.6107C59.1203 39.8719 56.3479 38.7166 53.4207 38.2388C50.4934 37.761 47.4937 37.9741 44.6651 38.8607ZM69.2802 4.8061C69.2802 5.20316 68.8796 5.1676 68.8796 4.8061C68.8437 4.26386 67.3849 0.903737 63.7378 0.977814C59.8007 1.05485 57.1371 4.23127 57.1371 8.27586C57.1371 12.3205 59.6901 15.8998 63.5913 15.7932C67.4925 15.6865 69.3519 11.8553 69.4984 11.3486C69.6449 10.8419 69.902 10.916 69.902 11.313V14.2761C68.2967 15.4317 65.2713 16.6614 62.9366 16.6614C60.6048 16.6614 54.1506 15.2154 54.1506 8.42105C54.1506 1.62376 60.276 0 62.7572 0C65.2355 0 67.7526 0.613356 69.2832 1.62376L69.2802 4.8061Z" fill="#171717"/>
</svg>
