<svg width="131" height="25" viewBox="0 0 131 25" fill="none" xmlns="http://www.w3.org/2000/svg">
<path fill-rule="evenodd" clip-rule="evenodd" d="M79.9087 23.9222C80.1274 24.2483 81.7445 24.0519 82.0484 23.9815C82.7502 23.814 82.5887 23.2581 82.5827 22.2658C82.5798 21.6002 82.516 20.9362 82.5131 20.2699C82.5101 19.9275 82.5375 19.5873 82.5264 19.2449C82.4597 16.5391 83.0504 14.4565 84.297 12.9965C85.1715 11.9715 86.1787 11.6017 86.3521 11.5668C87.0177 11.4371 87.406 11.6076 87.5201 12.0849C87.6921 12.8208 87.5231 13.436 87.0147 13.9295C86.2839 14.6336 85.949 14.3453 85.2938 14.3372C84.855 14.3342 84.855 14.5262 85.2908 14.9138C87.0451 16.4679 89.5694 16.0551 89.8999 16.0114C92.8933 15.6364 94.6958 13.5649 95.0678 13.4945C95.4428 13.4271 94.8825 15.0701 96.1551 15.6579C97.578 16.3167 100.903 15.9951 102.692 14.5032L103.828 13.5538C104.291 13.1677 103.913 14.5788 106.031 15.6986C108.505 17.0075 112.859 15.9795 112.978 12.5451C113.016 11.552 112.175 11.0666 113.215 10.8694C114.78 10.573 114.281 10.756 115.639 13.5805C115.861 14.053 116.094 14.52 116.339 14.9812C116.594 15.4074 116.863 16.0299 117.575 15.8706C118.509 15.6638 120.184 13.7858 120.327 13.602L121.211 12.4792C121.308 12.3584 121.445 12.4013 121.624 12.6089L124.098 15.4822C124.332 15.7542 124.678 15.8869 125.132 15.8728C125.631 15.8594 126.243 15.6223 126.969 15.1635C128.262 14.3438 129.217 13.5612 129.832 12.8193C130.523 11.9856 130.719 11.4438 130.423 11.2007C129.736 10.6345 128.596 12.0026 127.736 12.3991C125.467 13.4397 124.22 9.54725 123.311 9.05663C122.633 8.68977 121.668 9.11814 120.403 10.3403L119.309 11.3949C118.881 11.8107 118.576 10.3076 118.247 9.70882C118.001 9.26636 117.788 8.99659 117.6 8.90469C116.984 8.60231 113.44 9.70882 111.341 9.80294L109.698 9.87854C109.172 9.90522 109.813 10.6441 109.91 11.1896C110.126 12.3902 109.673 13.6094 108.948 13.7954C107.674 14.1245 107.308 12.0641 107.415 11.3408C107.68 9.55244 109.561 9.28044 109.687 9.18558C110.045 8.92174 109.678 8.65123 108.858 8.56007C105.74 8.21767 104.7 11.5112 101.238 13.3967C98.5719 14.8515 99.3397 12.9868 99.2463 11.8536C99.0306 9.17521 100.148 8.9914 96.6672 9.09368C96.4093 9.10183 95.6103 9.00178 95.3732 9.57171C95.0041 10.4588 95.6644 10.5567 94.8307 11.5216C93.8146 12.6978 92.7132 13.4204 91.526 13.6879C89.7487 14.0926 90.5603 13.2084 90.7255 12.6867C90.8604 12.2665 90.9382 11.9048 90.9597 11.6076C91.0598 10.3699 89.4575 8.93952 86.8457 9.3175C84.5445 9.65471 82.791 11.6595 82.7176 11.7076C82.6724 11.7373 82.6354 11.7914 82.5798 11.7914H82.5131C82.4753 11.7914 82.4612 11.5053 82.4693 10.9332C82.4938 9.58727 82.6746 9.26858 81.4977 9.21745C80.117 9.15297 80.0518 9.40347 79.8228 9.68139C79.4389 10.1372 79.2136 10.7093 78.8586 11.1926C77.8499 12.5651 77.1117 13.1617 76.6396 12.9787C76.3432 12.8653 73.3757 9.47981 72.7702 9.34789C72.2262 9.22634 71.7326 9.43979 71.2894 9.98155L69.3469 12.3687C69.1876 12.5637 68.9934 12.5118 68.7651 12.2123L66.9108 9.81702C66.5662 9.37457 65.5323 8.99734 64.7126 10.0112L62.7568 12.434C62.6352 12.5851 62.4737 12.537 62.2713 12.2857L60.0887 9.63915C60.019 9.55021 59.5603 9.21597 59.0044 9.41533C58.4975 9.59913 57.1946 10.9561 56.0288 11.9485C55.6027 12.3094 55.2299 12.7386 54.7874 13.0787C54.7341 13.1188 54.6881 13.1706 54.6259 13.2003C54.2101 13.4048 53.8217 12.5288 53.466 12.0938C52.7649 11.2467 52.2713 10.7805 51.9934 10.6967C50.663 10.3002 50.8335 12.259 50.5956 12.9364C50.0509 14.5002 47.906 14.6566 47.8949 12.9824C47.8808 11.0666 50.3688 10.2387 50.4955 10.155C50.706 10.0149 51.0788 9.62136 50.2747 9.5428C48.748 9.39458 47.0886 9.92374 45.295 11.1296L42.3246 13.1314C41.0002 14.0185 40.0426 10.7953 39.6758 10.258C39.5061 10.0075 39.2281 9.35382 38.2891 9.57541C37.8897 9.66731 37.2397 10.1313 36.3414 10.9591L34.8118 12.3724C34.7035 12.4725 34.6065 12.448 34.5257 12.3028C34.4397 12.1486 34.3641 11.1555 34.3048 9.31898C34.27 8.1858 34.3352 7.04964 34.2648 5.92016C34.227 5.28057 34.1647 5.25611 34.2485 3.82129C34.2566 3.69159 34.2759 3.56189 34.2729 3.43293C34.2678 2.93119 33.8764 3.02531 32.913 3.00679C32.0118 2.98826 31.3596 2.8556 31.3321 3.42478L31.1113 8.33699C30.9712 11.4853 31.0868 13.6435 31.4618 14.8115C31.7561 15.7283 32.1926 16.2278 32.7677 16.3189C34.4241 16.5783 35.8916 14.209 36.1532 13.9451C36.3689 13.7272 36.5927 13.4108 36.9951 13.8918C37.2701 14.226 37.4346 14.6447 37.691 14.9916C38.6701 16.3138 39.0073 16.3219 39.9922 16.2982C41.7191 16.2567 43.4511 14.4906 43.8446 14.2853C44.3464 14.0215 44.2871 14.5551 44.3731 14.7952C44.7888 15.9358 46.3393 16.7718 48.1395 16.376C50.3844 15.8824 50.4325 14.7137 51.1203 14.9456C51.5709 15.0939 52.1371 16.6287 53.3163 16.4776C53.9937 16.3945 55.5715 14.9857 56.5617 14.2519C57.2717 13.7265 57.6889 13.4293 57.8134 13.3537C58.4745 12.9624 58.5664 13.8955 60.1495 15.6601C60.7268 16.2989 61.3583 16.9282 62.7175 15.5541L64.7408 13.5041C65.1995 13.0424 65.8006 14.4884 67.2391 15.9239C67.3303 16.0158 67.4111 16.124 67.5171 16.1967C67.9699 16.5124 68.6013 16.2182 69.3988 15.3095L71.007 13.4797C71.1449 13.3233 71.3339 13.3559 71.5777 13.5768C72.513 14.4291 73.6247 16.167 74.5237 16.2478C75.3375 16.3212 76.4521 15.7898 77.8736 14.6484L79.2388 13.5531C79.676 13.2047 79.3692 14.3676 79.5441 16.8036C79.6004 17.6048 79.6138 18.5416 79.5789 19.6096C79.5093 21.6855 79.8554 23.8444 79.9087 23.9222ZM12.5616 18.403C14.3314 18.6142 16.1301 18.6224 17.957 18.426C19.5882 18.2518 20.9563 17.9969 22.0606 17.6626C25.4068 16.6495 27.8096 14.9671 28.9642 13.5516C29.8032 12.5221 28.6685 13.2262 28.0097 13.4804C25.9181 14.2898 23.7454 14.8715 21.5292 15.2154C19.5096 15.5289 19.7794 15.4044 19.7653 14.6018C19.7053 11.1147 19.9039 7.62476 19.7898 4.13849C19.7587 3.22097 19.7905 3.26173 20.8133 3.35586C22.7084 3.52854 24.7391 3.98953 26.9061 4.74103C27.3011 4.87814 28.982 5.81937 27.9971 4.32674C25.8804 1.11839 19.171 0.380225 16.9394 0.296477C3.19442 -0.210456 -3.62175 8.53561 2.64673 14.3824C5.01167 16.588 8.31637 17.9279 12.5616 18.403Z" fill="#171717"/>
<path fill-rule="evenodd" clip-rule="evenodd" d="M9.88593 3.34787C10.1179 3.26857 10.3565 3.2456 10.5996 3.28043C10.9391 3.32786 10.9354 3.44941 10.9532 3.70732L10.922 15.0044C10.9228 15.1363 10.882 15.2297 10.7983 15.283C10.6248 15.3949 8.83798 15.163 7.90563 14.8917C6.72131 14.5471 4.31783 13.4828 3.30396 11.4069C2.75404 10.2804 2.80963 8.95526 2.8667 8.65362C3.44997 5.57275 6.74725 3.76661 9.88593 3.34787Z" fill="#CC2229"/>
<path fill-rule="evenodd" clip-rule="evenodd" d="M96.4767 7.9549C96.9836 8.08163 99.0403 8.12239 99.2952 6.6216C99.5487 5.12304 97.0414 4.30335 95.6155 5.39429C94.8091 6.01165 94.5794 7.48206 96.4767 7.9549ZM127.388 7.93043C128.096 7.93043 128.682 7.34939 128.682 6.63272C128.67 6.29672 128.528 5.97859 128.286 5.74545C128.044 5.51231 127.72 5.38241 127.384 5.38318C127.048 5.38395 126.725 5.51532 126.484 5.74957C126.243 5.98381 126.102 6.3026 126.091 6.63865C126.091 7.34717 126.667 7.93043 127.388 7.93043Z" fill="#171717"/>
<path fill-rule="evenodd" clip-rule="evenodd" d="M127.393 7.75001C127.25 7.7506 127.108 7.72292 126.976 7.66857C126.844 7.61422 126.723 7.53427 126.622 7.43331C126.521 7.33236 126.44 7.21238 126.386 7.08027C126.331 6.94817 126.303 6.80653 126.303 6.66351C126.303 6.0543 126.787 5.56738 127.39 5.56738C127.533 5.56719 127.675 5.59522 127.808 5.64989C127.94 5.70455 128.061 5.78477 128.162 5.88597C128.264 5.98717 128.344 6.10737 128.399 6.2397C128.454 6.37203 128.483 6.5139 128.483 6.65721C128.483 6.80053 128.455 6.94247 128.4 7.07495C128.346 7.20743 128.265 7.32785 128.164 7.42932C128.063 7.5308 127.943 7.61135 127.81 7.66637C127.678 7.72139 127.536 7.74981 127.393 7.75001Z" fill="white"/>
<path fill-rule="evenodd" clip-rule="evenodd" d="M126.815 7.35789H127.116V6.7687H127.409C127.54 6.7687 127.675 6.87542 127.675 7.11332C127.675 7.28971 127.683 7.30676 127.695 7.35789H127.978C127.943 7.21189 127.982 7.0607 127.947 6.91396C127.909 6.75462 127.807 6.67235 127.711 6.65901C127.795 6.64142 127.87 6.59483 127.923 6.52744C127.976 6.46005 128.003 6.37619 128 6.29067C128 6.06166 127.832 5.88379 127.564 5.88379H126.815V7.35789Z" fill="#171717"/>
<path fill-rule="evenodd" clip-rule="evenodd" d="M127.117 6.56994V6.14453H127.49C127.618 6.14453 127.71 6.24384 127.71 6.35946C127.71 6.47804 127.613 6.57587 127.502 6.57439L127.117 6.56994Z" fill="white"/>
</svg>
