<svg width="93" height="40" viewBox="0 0 93 40" fill="none" xmlns="http://www.w3.org/2000/svg">
<path d="M87.6313 38.2651L74.0615 0.611837L74.0522 0.586914H73.7844L70.9901 8.32451L65.9028 22.411L65.8909 22.3999C64.1278 20.8319 61.6403 19.8518 58.5075 19.4868L57.552 19.3874L58.4999 19.2649C63.6662 18.3293 67.1389 15.0409 67.1389 11.0791C67.1389 5.64621 62.0687 1.85411 54.806 1.85411H39.6948V2.12919H44.0857V30.2018L33.4218 0.611745L33.4122 0.586914H33.1444L30.35 8.32451L19.5721 38.1681L19.5058 38.1759C19.3216 38.1988 19.1394 38.217 18.9592 38.2307C18.6881 38.2521 18.4185 38.265 18.1482 38.265H7.258L27.9587 2.1291L28.1126 1.85753H2.79477V13.036H3.06341C3.11103 7.59113 6.25737 2.1291 13.2089 2.1291H21.5954L0.738281 38.5357H28.8369V27.826H28.5683C28.5316 32.5717 25.8623 37.0793 20.0576 38.0971L19.8731 38.1288L24.2938 25.8828H36.6776L41.1399 38.2651H36.7381V38.5358H54.0153V38.2651H49.5946V19.5871H54.6955C59.8864 19.5871 62.8636 21.9243 62.8636 25.9975V29.3107C62.8636 29.6757 62.8882 30.2095 62.9154 30.6559V30.6721L60.1737 38.2633H56.5921V38.534H64.0061V38.2633H60.4629L62.9596 31.3508C62.9648 31.4176 62.9673 31.4578 62.9673 31.4578L63.0362 32.0807L63.1025 32.4928C63.5191 35.0418 64.4865 36.9155 65.9768 38.0619L66.191 38.2187C67.3234 39.0121 68.7304 39.4139 70.3754 39.4139C72.5543 39.4139 74.0071 38.8665 75.2067 37.5779L75.0495 37.4288C73.9442 38.4569 73.0168 38.8734 71.8547 38.8734C69.8747 38.8734 68.8384 36.4529 68.8384 34.0659V29.4237C68.8489 28.2719 68.67 27.1263 68.3087 26.0335L68.2594 25.8896V25.8844H77.3174L81.7797 38.2667H77.3779V38.5375H92.3292V38.2667L87.6313 38.2651ZM24.3924 25.612L30.493 8.72042L36.5799 25.612H24.3924ZM49.5973 19.3154V2.1291H53.4908C58.692 2.1291 61.4379 5.24522 61.4379 11.1374C61.4379 17.4039 59.8617 19.3154 54.6955 19.3154H49.5973ZM68.1539 25.612L68.1276 25.5452C67.725 24.5571 67.139 23.6556 66.4009 22.8891L66.1459 22.632L66.1187 22.6064L71.1294 8.72042L77.2163 25.612H68.1539Z" fill="#171717"/>
</svg>
