<svg width="78" height="32" viewBox="0 0 78 32" fill="none" xmlns="http://www.w3.org/2000/svg">
<path fill-rule="evenodd" clip-rule="evenodd" d="M24.8065 23.9763C24.8065 23.0114 24.953 22.8947 25.896 22.8213V22.5876H22.4454V22.8213C23.4249 22.8947 23.571 23.0554 23.571 23.9763V29.9125C23.571 30.5633 23.3884 30.7608 23.1032 30.7608C22.628 30.7608 22.9206 29.6793 22.1163 29.6793C21.7581 29.6793 21.5386 30.0665 21.5386 30.3006C21.5386 30.4907 21.6116 30.6803 21.8311 30.9144C21.9407 31.1045 22.2624 31.3021 22.7741 31.3021C23.1032 31.3021 24.8065 31.2585 24.8065 28.7139V23.9763ZM55.2994 22.3971H55.0433C55.0068 22.5507 54.9702 22.8209 54.6046 22.8209C54.312 22.8209 53.6621 22.3971 52.9378 22.3971C51.8409 22.3971 50.7514 23.1284 50.7514 24.5901C50.7514 25.8261 51.5192 26.4034 52.6448 27.0978C54.4216 28.1798 54.6042 28.6404 54.6042 29.3717C54.6042 30.0661 54.1364 30.7974 53.1491 30.7974C51.5188 30.7974 50.8979 29.1011 50.6784 28.5234H50.3929L50.751 31.2581H51.0071C51.0071 31.031 51.1532 30.7974 51.4093 30.7974C51.7674 30.7974 52.3518 31.3021 53.2591 31.3021C55.0059 31.3021 55.8028 30.03 55.8028 28.9115C55.8028 26.2868 51.7674 26.0162 51.7674 24.1299C51.7674 23.3185 52.3883 22.9383 53.003 22.9383C54.2747 22.9383 55.0425 24.0934 55.262 25.1314H55.5467L55.2994 22.3971ZM50.175 22.5872H47.3378V22.8209C48.1782 22.8943 48.5003 22.9744 48.5003 24.4806V28.7575H48.4638L43.8507 22.5872H41.7822V22.8209C42.2499 22.8209 42.4695 22.8943 42.9447 23.5156V29.1812C42.9447 30.5629 42.6886 30.7604 41.7822 30.8331V31.0667H44.6185V30.8331C43.7415 30.7965 43.4859 30.4898 43.4859 29.1812V24.166H43.5224L48.8294 31.2576H49.049V24.4806C49.049 22.9744 49.4146 22.8943 50.175 22.8209V22.5872ZM35.7065 27.756L37.0882 24.2469L38.5063 27.756H35.7065ZM41.6286 30.8335C41.087 30.797 40.9413 30.6434 40.5392 29.7154L37.5198 22.4336H37.3077L34.7636 28.7135C34.5444 29.2983 34.1788 30.2196 33.8862 30.5268C33.6741 30.797 33.455 30.797 33.2724 30.8335V31.0671H35.6704V30.8335C35.4143 30.8335 34.837 30.8335 34.837 30.3002C34.837 30.1391 34.8735 29.9491 34.9395 29.7955L35.4878 28.2893H38.6827L39.1579 29.5253C39.231 29.7154 39.3775 30.1391 39.3775 30.3367C39.3775 30.797 39.0118 30.8335 38.5441 30.8335V31.0671H41.6294V30.8335H41.6286ZM33.4039 28.9111H33.0383C32.5336 30.1827 31.9123 30.5629 30.4281 30.5629C28.6078 30.5629 28.6078 30.5629 28.6078 30.0291V26.8637H30.4647C31.4811 26.9073 31.6637 27.0613 31.8027 28.0992H32.0953V25.1314H31.8027C31.6637 26.0162 31.5541 26.3304 30.4647 26.3304H28.6078V23.516C28.6078 23.0558 28.7543 23.0558 29.01 23.0558H30.6402C31.9853 23.0558 32.2779 23.282 32.4605 24.4005H32.7893L32.7527 22.5876H26.3197V22.8213C27.0801 22.8947 27.3727 22.9748 27.3727 23.9763V29.6789C27.3727 30.6434 27.0801 30.7604 26.3197 30.8335V31.0671H32.8627L33.4039 28.9111ZM76.7345 0.699219H76.2004C76.1203 1.02792 76.0473 1.59818 75.2724 1.59818C74.6586 1.59818 73.2694 0.699219 71.7193 0.699219C69.4163 0.699219 67.1062 2.25642 67.1062 5.38535C67.1062 8.01707 68.7145 9.25968 71.105 10.7368C74.8922 13.0394 75.2724 14.0263 75.2724 15.5835C75.2724 17.0677 74.263 18.6324 72.1945 18.6324C68.7145 18.6324 67.4133 15.0133 66.9531 13.7781H66.3239L67.1062 19.6122H67.6404C67.6404 19.1296 67.9466 18.6328 68.4883 18.6328C69.2561 18.6328 70.4912 19.6998 72.4215 19.6998C76.1203 19.6998 77.8244 16.9876 77.8244 14.597C77.8244 9.00402 69.2561 8.43418 69.2561 4.3984C69.2561 2.67311 70.5717 1.85425 71.8729 1.85425C74.5706 1.85425 76.2008 4.3183 76.6619 6.53333H77.2757L76.7345 0.699219ZM62.8368 0.699219H62.296C62.2229 1.02792 62.142 1.59818 61.3742 1.59818C60.7604 1.59818 59.3713 0.699219 57.8211 0.699219C55.5181 0.699219 53.2005 2.25642 53.2005 5.38535C53.2005 8.01707 54.8171 9.25968 57.2073 10.7368C60.9936 13.0394 61.3738 14.0263 61.3738 15.5835C61.3738 17.0677 60.3652 18.6324 58.2959 18.6324C54.8167 18.6324 53.5077 15.0133 53.0474 13.7781H52.4257L53.2005 19.6122H53.7422C53.7422 19.1296 54.0493 18.6328 54.5901 18.6328C55.3579 18.6328 56.593 19.6998 58.5233 19.6998C62.2229 19.6998 63.9188 16.9876 63.9188 14.597C63.9188 9.00402 55.3579 8.43418 55.3579 4.3984C55.3579 2.67311 56.6735 1.85425 57.9755 1.85425C60.6732 1.85425 62.296 4.3183 62.7567 6.53333H63.3705L62.8368 0.699219ZM51.33 14.5966H50.5477C49.4727 17.3163 48.1708 18.1422 44.9983 18.1422C41.1455 18.1422 41.1455 18.1422 41.1455 16.9872V10.247H45.0796C47.2357 10.3201 47.6233 10.6492 47.9305 12.8788H48.5514V6.53292H47.9305C47.6233 8.43376 47.3897 9.09159 45.0796 9.09159H41.1455V3.08233C41.1455 2.09539 41.4526 2.09539 41.9943 2.09539H45.4743C48.3252 2.09539 48.9398 2.58513 49.3192 4.97571H50.0139L49.9338 1.10844H36.2917V1.59818C37.9149 1.76627 38.5287 1.9273 38.5287 4.06928V16.2414C38.5287 18.3032 37.9149 18.5444 36.2917 18.7125V19.2026H50.1679L51.33 14.5966ZM35.4434 1.10844H29.5072V1.59818C31.2835 1.68616 31.8903 2.18337 31.8903 5.1438V12.4617C31.8903 14.6842 31.5906 15.5831 31.2835 16.2409C30.5086 17.484 29.127 18.3833 27.1162 18.3833C22.6421 18.3833 22.6421 14.5962 22.6421 12.7904V4.06928C22.6421 2.09539 22.9492 1.76627 24.9597 1.59818V1.10844H17.7078V1.59818C19.6377 1.76627 20.0179 2.01487 20.0179 4.06928V12.6227C20.0179 14.2675 20.0179 19.6994 26.3417 19.6994C32.9798 19.6994 32.9798 14.4356 32.9798 12.2205V5.1438C32.9798 2.25601 33.4404 1.85384 35.4434 1.59818V1.10844ZM17.6273 9.59627H11.0403V10.0935C12.8241 10.2545 13.2848 10.2545 13.2848 12.5575V17.0021C13.2848 17.9891 11.589 18.5668 9.7977 18.5668C5.76939 18.5668 3.1302 15.5184 3.1302 10.5106C3.1302 3.59449 6.92484 1.86214 9.33701 1.86214C12.9777 1.86214 14.3087 4.58185 14.9956 6.55574H15.6098L15.3832 0.802146H14.8349C14.6814 1.53343 13.8331 1.70152 13.6069 1.70152C12.737 1.70152 11.5894 0.802146 9.01578 0.802146C3.52531 0.802146 0.177246 5.40818 0.177246 9.9258C0.177246 13.5449 0.959582 15.1897 2.27565 16.7614C4.13998 18.8963 7.01283 19.8027 9.56445 19.8027C12.3647 19.8027 15.8518 18.0775 15.8518 17.7483V12.228C15.8518 10.2541 16.4806 10.181 17.6285 10.0931V9.59627H17.6273Z" fill="#171717"/>
</svg>
